<?xml version="1.0" encoding="UTF-8" standalone="no"?>
<!-- Created with Inkscape (http://www.inkscape.org/) -->

<svg
   xmlns:dc="http://purl.org/dc/elements/1.1/"
   xmlns:cc="http://creativecommons.org/ns#"
   xmlns:rdf="http://www.w3.org/1999/02/22-rdf-syntax-ns#"
   xmlns:svg="http://www.w3.org/2000/svg"
   xmlns="http://www.w3.org/2000/svg"
   xmlns:xlink="http://www.w3.org/1999/xlink"
   xmlns:sodipodi="http://sodipodi.sourceforge.net/DTD/sodipodi-0.dtd"
   xmlns:inkscape="http://www.inkscape.org/namespaces/inkscape"
   version="1.1"
   id="svg29"
   width="736"
   height="448"
   viewBox="0 0 736 448"
   sodipodi:docname="scene1.svg"
   inkscape:version="0.92.4 (5da689c313, 2019-01-14)">
  <metadata
     id="metadata35">
    <rdf:RDF>
      <cc:Work
         rdf:about="">
        <dc:format>image/svg+xml</dc:format>
        <dc:type
           rdf:resource="http://purl.org/dc/dcmitype/StillImage" />
        <dc:title></dc:title>
      </cc:Work>
    </rdf:RDF>
  </metadata>
  <defs
     id="defs33" />
  <sodipodi:namedview
     pagecolor="#ffffff"
     bordercolor="#666666"
     borderopacity="1"
     objecttolerance="10"
     gridtolerance="10"
     guidetolerance="10"
     inkscape:pageopacity="0"
     inkscape:pageshadow="2"
     inkscape:window-width="1920"
     inkscape:window-height="1017"
     id="namedview31"
     showgrid="false"
     inkscape:zoom="1.5434783"
     inkscape:cx="426.54709"
     inkscape:cy="204.14794"
     inkscape:window-x="1912"
     inkscape:window-y="32"
     inkscape:window-maximized="1"
     inkscape:current-layer="svg29" />
  <image
     sodipodi:absref="C:\Repositories\1DAE_PROG_FINAL\Pinto_Tomas_NuclearMiami\Pinto_Tomas_NuclearMiami\Resources\Scenes\Scene1\scene1col.png"
     xlink:href="scene1col.png"
     y="0"
     x="0"
     id="image37"
     preserveAspectRatio="none"
     height="448"
     width="736" />
  <path
     style="fill:#000000"
     d="M 44 44 L 44 128 L 44 212 L 108.5 212 L 173 212 L 173 307.5 L 173 403 L 320 403 L 467 403 L 467 355.5 L 467 308 L 480 308 L 493 308 L 493 371.5 L 493 435 L 592.5 435 L 692 435 L 692 287.5 L 692 140 L 516 140 L 340 140 L 340 92 L 340 44 L 192 44 L 44 44 z M 51 51 L 192 51 L 333 51 L 333 128 L 333 205 L 289 205 L 245 205 L 245 208.5 L 245 212 L 257 212 L 269 212 L 269 259.5 L 269 307 L 336 307 L 403 307 L 403 227 L 403 147 L 544 147 L 685 147 L 685 176 L 685 205 L 653 205 L 621 205 L 621 236 L 621 267 L 624.5 267 L 628 267 L 628 239.5 L 628 212 L 656.5 212 L 685 212 L 685 256.5 L 685 301 L 668.5 301 L 652 301 L 652 364.5 L 652 428 L 576 428 L 500 428 L 500 368 L 500 308 L 516 308 L 532 308 L 532 291.5 L 532 275 L 547.5 275 L 563 275 L 563 240 L 563 205 L 512 205 L 461 205 L 461 240 L 461 275 L 493 275 L 525 275 L 525 288 L 525 301 L 492.5 301 L 460 301 L 460 348.5 L 460 396 L 320 396 L 180 396 L 180 304 L 180 212 L 191.5 212 L 203 212 L 203 208.5 L 203 205 L 127 205 L 51 205 L 51 128 L 51 51 z "
     id="path39" />
</svg>
